<?xml version="1.0" encoding="UTF-8" standalone="no"?>
<!DOCTYPE svg PUBLIC "-//W3C//DTD SVG 1.1//EN"
 "http://www.w3.org/Graphics/SVG/1.1/DTD/svg11.dtd">
<!-- Generated by graphviz version 2.40.1 (20161225.0304)
 -->
<!-- Title: G Pages: 1 -->
<svg width="1954pt" height="511pt"
 viewBox="0.00 0.00 1954.20 511.20" xmlns="http://www.w3.org/2000/svg" xmlns:xlink="http://www.w3.org/1999/xlink">
<g id="graph0" class="graph" transform="scale(1 1) rotate(0) translate(21.6 489.6)">
<title>G</title>
<polygon fill="#111111" stroke="transparent" points="-21.6,21.6 -21.6,-489.6 1932.6,-489.6 1932.6,21.6 -21.6,21.6"/>
<!-- App.js -->
<g id="node1" class="node">
<title>App.js</title>
<path fill="none" stroke="#c6c5fe" d="M202.3333,-226C202.3333,-226 160.6667,-226 160.6667,-226 156.8333,-226 153,-222.1667 153,-218.3333 153,-218.3333 153,-210.6667 153,-210.6667 153,-206.8333 156.8333,-203 160.6667,-203 160.6667,-203 202.3333,-203 202.3333,-203 206.1667,-203 210,-206.8333 210,-210.6667 210,-210.6667 210,-218.3333 210,-218.3333 210,-222.1667 206.1667,-226 202.3333,-226"/>
<text text-anchor="middle" x="181.5" y="-210.8" font-family="Arial" font-size="14.00" fill="#c6c5fe">App.js</text>
</g>
<!-- containers/index.js -->
<g id="node2" class="node">
<title>containers/index.js</title>
<path fill="none" stroke="#c6c5fe" d="M408.3333,-246C408.3333,-246 286.6667,-246 286.6667,-246 282.8333,-246 279,-242.1667 279,-238.3333 279,-238.3333 279,-230.6667 279,-230.6667 279,-226.8333 282.8333,-223 286.6667,-223 286.6667,-223 408.3333,-223 408.3333,-223 412.1667,-223 416,-226.8333 416,-230.6667 416,-230.6667 416,-238.3333 416,-238.3333 416,-242.1667 412.1667,-246 408.3333,-246"/>
<text text-anchor="middle" x="347.5" y="-230.8" font-family="Arial" font-size="14.00" fill="#c6c5fe">containers/index.js</text>
</g>
<!-- App.js&#45;&gt;containers/index.js -->
<g id="edge1" class="edge">
<title>App.js&#45;&gt;containers/index.js</title>
<path fill="none" stroke="#757575" d="M210.0364,-217.9381C226.4416,-219.9146 247.9292,-222.5035 269.0257,-225.0453"/>
<polygon fill="#757575" stroke="#757575" points="268.6509,-228.5253 278.9978,-226.2467 269.4882,-221.5756 268.6509,-228.5253"/>
</g>
<!-- containers/Home/index.js -->
<g id="node15" class="node">
<title>containers/Home/index.js</title>
<path fill="none" stroke="#c6c5fe" d="M644.8333,-388C644.8333,-388 480.1667,-388 480.1667,-388 476.3333,-388 472.5,-384.1667 472.5,-380.3333 472.5,-380.3333 472.5,-372.6667 472.5,-372.6667 472.5,-368.8333 476.3333,-365 480.1667,-365 480.1667,-365 644.8333,-365 644.8333,-365 648.6667,-365 652.5,-368.8333 652.5,-372.6667 652.5,-372.6667 652.5,-380.3333 652.5,-380.3333 652.5,-384.1667 648.6667,-388 644.8333,-388"/>
<text text-anchor="middle" x="562.5" y="-372.8" font-family="Arial" font-size="14.00" fill="#c6c5fe">containers/Home/index.js</text>
</g>
<!-- containers/index.js&#45;&gt;containers/Home/index.js -->
<g id="edge21" class="edge">
<title>containers/index.js&#45;&gt;containers/Home/index.js</title>
<path fill="none" stroke="#757575" d="M365.0944,-246.1205C402.9061,-271.0938 492.074,-329.9861 536.4595,-359.3012"/>
<polygon fill="#757575" stroke="#757575" points="534.6908,-362.3275 544.9641,-364.9181 538.5487,-356.4864 534.6908,-362.3275"/>
</g>
<!-- containers/Item/index.js -->
<g id="node19" class="node">
<title>containers/Item/index.js</title>
<path fill="none" stroke="#c6c5fe" d="M639.3333,-246C639.3333,-246 485.6667,-246 485.6667,-246 481.8333,-246 478,-242.1667 478,-238.3333 478,-238.3333 478,-230.6667 478,-230.6667 478,-226.8333 481.8333,-223 485.6667,-223 485.6667,-223 639.3333,-223 639.3333,-223 643.1667,-223 647,-226.8333 647,-230.6667 647,-230.6667 647,-238.3333 647,-238.3333 647,-242.1667 643.1667,-246 639.3333,-246"/>
<text text-anchor="middle" x="562.5" y="-230.8" font-family="Arial" font-size="14.00" fill="#c6c5fe">containers/Item/index.js</text>
</g>
<!-- containers/index.js&#45;&gt;containers/Item/index.js -->
<g id="edge22" class="edge">
<title>containers/index.js&#45;&gt;containers/Item/index.js</title>
<path fill="none" stroke="#757575" d="M416.1185,-234.5C432.5554,-234.5 450.394,-234.5 467.7802,-234.5"/>
<polygon fill="#757575" stroke="#757575" points="467.9507,-238.0001 477.9506,-234.5 467.9506,-231.0001 467.9507,-238.0001"/>
</g>
<!-- App.test.js -->
<g id="node3" class="node">
<title>App.test.js</title>
<path fill="none" stroke="#cfffac" d="M76.3333,-226C76.3333,-226 7.6667,-226 7.6667,-226 3.8333,-226 0,-222.1667 0,-218.3333 0,-218.3333 0,-210.6667 0,-210.6667 0,-206.8333 3.8333,-203 7.6667,-203 7.6667,-203 76.3333,-203 76.3333,-203 80.1667,-203 84,-206.8333 84,-210.6667 84,-210.6667 84,-218.3333 84,-218.3333 84,-222.1667 80.1667,-226 76.3333,-226"/>
<text text-anchor="middle" x="42" y="-210.8" font-family="Arial" font-size="14.00" fill="#cfffac">App.test.js</text>
</g>
<!-- api/index.js -->
<g id="node4" class="node">
<title>api/index.js</title>
<path fill="none" stroke="#c6c5fe" d="M862.3333,-308C862.3333,-308 788.6667,-308 788.6667,-308 784.8333,-308 781,-304.1667 781,-300.3333 781,-300.3333 781,-292.6667 781,-292.6667 781,-288.8333 784.8333,-285 788.6667,-285 788.6667,-285 862.3333,-285 862.3333,-285 866.1667,-285 870,-288.8333 870,-292.6667 870,-292.6667 870,-300.3333 870,-300.3333 870,-304.1667 866.1667,-308 862.3333,-308"/>
<text text-anchor="middle" x="825.5" y="-292.8" font-family="Arial" font-size="14.00" fill="#c6c5fe">api/index.js</text>
</g>
<!-- config/index.js -->
<g id="node5" class="node">
<title>config/index.js</title>
<path fill="none" stroke="#cfffac" d="M1185.8333,-288C1185.8333,-288 1092.1667,-288 1092.1667,-288 1088.3333,-288 1084.5,-284.1667 1084.5,-280.3333 1084.5,-280.3333 1084.5,-272.6667 1084.5,-272.6667 1084.5,-268.8333 1088.3333,-265 1092.1667,-265 1092.1667,-265 1185.8333,-265 1185.8333,-265 1189.6667,-265 1193.5,-268.8333 1193.5,-272.6667 1193.5,-272.6667 1193.5,-280.3333 1193.5,-280.3333 1193.5,-284.1667 1189.6667,-288 1185.8333,-288"/>
<text text-anchor="middle" x="1139" y="-272.8" font-family="Arial" font-size="14.00" fill="#cfffac">config/index.js</text>
</g>
<!-- api/index.js&#45;&gt;config/index.js -->
<g id="edge2" class="edge">
<title>api/index.js&#45;&gt;config/index.js</title>
<path fill="none" stroke="#757575" d="M870.084,-293.6557C923.3778,-290.2558 1012.9983,-284.5384 1074.0035,-280.6465"/>
<polygon fill="#757575" stroke="#757575" points="1074.5345,-284.1198 1084.2913,-279.9902 1074.0887,-277.134 1074.5345,-284.1198"/>
</g>
<!-- components/Comment/index.js -->
<g id="node6" class="node">
<title>components/Comment/index.js</title>
<path fill="none" stroke="#cfffac" d="M1239.8333,-144C1239.8333,-144 1038.1667,-144 1038.1667,-144 1034.3333,-144 1030.5,-140.1667 1030.5,-136.3333 1030.5,-136.3333 1030.5,-128.6667 1030.5,-128.6667 1030.5,-124.8333 1034.3333,-121 1038.1667,-121 1038.1667,-121 1239.8333,-121 1239.8333,-121 1243.6667,-121 1247.5,-124.8333 1247.5,-128.6667 1247.5,-128.6667 1247.5,-136.3333 1247.5,-136.3333 1247.5,-140.1667 1243.6667,-144 1239.8333,-144"/>
<text text-anchor="middle" x="1139" y="-128.8" font-family="Arial" font-size="14.00" fill="#cfffac">components/Comment/index.js</text>
</g>
<!-- components/Comments/CommentsContainer.js -->
<g id="node7" class="node">
<title>components/Comments/CommentsContainer.js</title>
<path fill="none" stroke="#cfffac" d="M1292.3333,-185C1292.3333,-185 985.6667,-185 985.6667,-185 981.8333,-185 978,-181.1667 978,-177.3333 978,-177.3333 978,-169.6667 978,-169.6667 978,-165.8333 981.8333,-162 985.6667,-162 985.6667,-162 1292.3333,-162 1292.3333,-162 1296.1667,-162 1300,-165.8333 1300,-169.6667 1300,-169.6667 1300,-177.3333 1300,-177.3333 1300,-181.1667 1296.1667,-185 1292.3333,-185"/>
<text text-anchor="middle" x="1139" y="-169.8" font-family="Arial" font-size="14.00" fill="#cfffac">components/Comments/CommentsContainer.js</text>
</g>
<!-- components/Comments/index.js -->
<g id="node8" class="node">
<title>components/Comments/index.js</title>
<path fill="none" stroke="#c6c5fe" d="M929.8333,-144C929.8333,-144 721.1667,-144 721.1667,-144 717.3333,-144 713.5,-140.1667 713.5,-136.3333 713.5,-136.3333 713.5,-128.6667 713.5,-128.6667 713.5,-124.8333 717.3333,-121 721.1667,-121 721.1667,-121 929.8333,-121 929.8333,-121 933.6667,-121 937.5,-124.8333 937.5,-128.6667 937.5,-128.6667 937.5,-136.3333 937.5,-136.3333 937.5,-140.1667 933.6667,-144 929.8333,-144"/>
<text text-anchor="middle" x="825.5" y="-128.8" font-family="Arial" font-size="14.00" fill="#c6c5fe">components/Comments/index.js</text>
</g>
<!-- components/Comments/index.js&#45;&gt;components/Comment/index.js -->
<g id="edge3" class="edge">
<title>components/Comments/index.js&#45;&gt;components/Comment/index.js</title>
<path fill="none" stroke="#757575" d="M937.7952,-132.5C964.5134,-132.5 993.1102,-132.5 1020.1125,-132.5"/>
<polygon fill="#757575" stroke="#757575" points="1020.3761,-136.0001 1030.3761,-132.5 1020.3761,-129.0001 1020.3761,-136.0001"/>
</g>
<!-- components/Comments/index.js&#45;&gt;components/Comments/CommentsContainer.js -->
<g id="edge4" class="edge">
<title>components/Comments/index.js&#45;&gt;components/Comments/CommentsContainer.js</title>
<path fill="none" stroke="#757575" d="M907.7835,-144.0342C930.5226,-147.1663 955.2106,-150.5155 978,-153.5 996.2283,-155.8872 1015.6274,-158.3571 1034.4152,-160.7125"/>
<polygon fill="#757575" stroke="#757575" points="1034.1185,-164.2026 1044.4755,-161.9703 1034.987,-157.2567 1034.1185,-164.2026"/>
</g>
<!-- helpers/index.js -->
<g id="node9" class="node">
<title>helpers/index.js</title>
<path fill="none" stroke="#c6c5fe" d="M1190.3333,-64C1190.3333,-64 1087.6667,-64 1087.6667,-64 1083.8333,-64 1080,-60.1667 1080,-56.3333 1080,-56.3333 1080,-48.6667 1080,-48.6667 1080,-44.8333 1083.8333,-41 1087.6667,-41 1087.6667,-41 1190.3333,-41 1190.3333,-41 1194.1667,-41 1198,-44.8333 1198,-48.6667 1198,-48.6667 1198,-56.3333 1198,-56.3333 1198,-60.1667 1194.1667,-64 1190.3333,-64"/>
<text text-anchor="middle" x="1139" y="-48.8" font-family="Arial" font-size="14.00" fill="#c6c5fe">helpers/index.js</text>
</g>
<!-- components/Comments/index.js&#45;&gt;helpers/index.js -->
<g id="edge5" class="edge">
<title>components/Comments/index.js&#45;&gt;helpers/index.js</title>
<path fill="none" stroke="#757575" d="M870.7508,-120.9528C927.1298,-106.5658 1023.4087,-81.997 1083.9901,-66.5376"/>
<polygon fill="#757575" stroke="#757575" points="1084.9389,-69.9077 1093.7629,-64.0437 1083.208,-63.1251 1084.9389,-69.9077"/>
</g>
<!-- helpers/localStorage/getStorage.js -->
<g id="node21" class="node">
<title>helpers/localStorage/getStorage.js</title>
<path fill="none" stroke="#c6c5fe" d="M1579.8333,-64C1579.8333,-64 1356.1667,-64 1356.1667,-64 1352.3333,-64 1348.5,-60.1667 1348.5,-56.3333 1348.5,-56.3333 1348.5,-48.6667 1348.5,-48.6667 1348.5,-44.8333 1352.3333,-41 1356.1667,-41 1356.1667,-41 1579.8333,-41 1579.8333,-41 1583.6667,-41 1587.5,-44.8333 1587.5,-48.6667 1587.5,-48.6667 1587.5,-56.3333 1587.5,-56.3333 1587.5,-60.1667 1583.6667,-64 1579.8333,-64"/>
<text text-anchor="middle" x="1468" y="-48.8" font-family="Arial" font-size="14.00" fill="#c6c5fe">helpers/localStorage/getStorage.js</text>
</g>
<!-- helpers/index.js&#45;&gt;helpers/localStorage/getStorage.js -->
<g id="edge23" class="edge">
<title>helpers/index.js&#45;&gt;helpers/localStorage/getStorage.js</title>
<path fill="none" stroke="#757575" d="M1198.1986,-52.5C1237.1463,-52.5 1289.6803,-52.5 1338.0429,-52.5"/>
<polygon fill="#757575" stroke="#757575" points="1338.2933,-56.0001 1348.2932,-52.5 1338.2932,-49.0001 1338.2933,-56.0001"/>
</g>
<!-- helpers/localStorage/setStorage.js -->
<g id="node22" class="node">
<title>helpers/localStorage/setStorage.js</title>
<path fill="none" stroke="#c6c5fe" d="M1579.3333,-23C1579.3333,-23 1356.6667,-23 1356.6667,-23 1352.8333,-23 1349,-19.1667 1349,-15.3333 1349,-15.3333 1349,-7.6667 1349,-7.6667 1349,-3.8333 1352.8333,0 1356.6667,0 1356.6667,0 1579.3333,0 1579.3333,0 1583.1667,0 1587,-3.8333 1587,-7.6667 1587,-7.6667 1587,-15.3333 1587,-15.3333 1587,-19.1667 1583.1667,-23 1579.3333,-23"/>
<text text-anchor="middle" x="1468" y="-7.8" font-family="Arial" font-size="14.00" fill="#c6c5fe">helpers/localStorage/setStorage.js</text>
</g>
<!-- helpers/index.js&#45;&gt;helpers/localStorage/setStorage.js -->
<g id="edge24" class="edge">
<title>helpers/index.js&#45;&gt;helpers/localStorage/setStorage.js</title>
<path fill="none" stroke="#757575" d="M1198.1986,-45.1227C1244.6128,-39.3385 1310.322,-31.1498 1365.2723,-24.3019"/>
<polygon fill="#757575" stroke="#757575" points="1365.91,-27.7496 1375.4004,-23.0398 1365.0443,-20.8034 1365.91,-27.7496"/>
</g>
<!-- helpers/localStorage/storageAvailable.js -->
<g id="node23" class="node">
<title>helpers/localStorage/storageAvailable.js</title>
<path fill="none" stroke="#cfffac" d="M1903.3333,-64C1903.3333,-64 1643.6667,-64 1643.6667,-64 1639.8333,-64 1636,-60.1667 1636,-56.3333 1636,-56.3333 1636,-48.6667 1636,-48.6667 1636,-44.8333 1639.8333,-41 1643.6667,-41 1643.6667,-41 1903.3333,-41 1903.3333,-41 1907.1667,-41 1911,-44.8333 1911,-48.6667 1911,-48.6667 1911,-56.3333 1911,-56.3333 1911,-60.1667 1907.1667,-64 1903.3333,-64"/>
<text text-anchor="middle" x="1773.5" y="-48.8" font-family="Arial" font-size="14.00" fill="#cfffac">helpers/localStorage/storageAvailable.js</text>
</g>
<!-- helpers/index.js&#45;&gt;helpers/localStorage/storageAvailable.js -->
<g id="edge25" class="edge">
<title>helpers/index.js&#45;&gt;helpers/localStorage/storageAvailable.js</title>
<path fill="none" stroke="#757575" d="M1198.3638,-60.1077C1237.4009,-64.7198 1289.6502,-70.1532 1336,-72.5 1453.1832,-78.4331 1482.8598,-79.2293 1600,-72.5 1626.1892,-70.9955 1654.4927,-68.2237 1680.4904,-65.213"/>
<polygon fill="#757575" stroke="#757575" points="1681.1917,-68.6545 1690.7112,-64.0038 1680.3692,-61.703 1681.1917,-68.6545"/>
</g>
<!-- components/Gallery/GalleryContainer.js -->
<g id="node10" class="node">
<title>components/Gallery/GalleryContainer.js</title>
<path fill="none" stroke="#cfffac" d="M1267.3333,-226C1267.3333,-226 1010.6667,-226 1010.6667,-226 1006.8333,-226 1003,-222.1667 1003,-218.3333 1003,-218.3333 1003,-210.6667 1003,-210.6667 1003,-206.8333 1006.8333,-203 1010.6667,-203 1010.6667,-203 1267.3333,-203 1267.3333,-203 1271.1667,-203 1275,-206.8333 1275,-210.6667 1275,-210.6667 1275,-218.3333 1275,-218.3333 1275,-222.1667 1271.1667,-226 1267.3333,-226"/>
<text text-anchor="middle" x="1139" y="-210.8" font-family="Arial" font-size="14.00" fill="#cfffac">components/Gallery/GalleryContainer.js</text>
</g>
<!-- components/Gallery/index.js -->
<g id="node11" class="node">
<title>components/Gallery/index.js</title>
<path fill="none" stroke="#c6c5fe" d="M917.8333,-185C917.8333,-185 733.1667,-185 733.1667,-185 729.3333,-185 725.5,-181.1667 725.5,-177.3333 725.5,-177.3333 725.5,-169.6667 725.5,-169.6667 725.5,-165.8333 729.3333,-162 733.1667,-162 733.1667,-162 917.8333,-162 917.8333,-162 921.6667,-162 925.5,-165.8333 925.5,-169.6667 925.5,-169.6667 925.5,-177.3333 925.5,-177.3333 925.5,-181.1667 921.6667,-185 917.8333,-185"/>
<text text-anchor="middle" x="825.5" y="-169.8" font-family="Arial" font-size="14.00" fill="#c6c5fe">components/Gallery/index.js</text>
</g>
<!-- components/Gallery/index.js&#45;&gt;components/Gallery/GalleryContainer.js -->
<g id="edge6" class="edge">
<title>components/Gallery/index.js&#45;&gt;components/Gallery/GalleryContainer.js</title>
<path fill="none" stroke="#757575" d="M907.7835,-185.0342C930.5226,-188.1663 955.2106,-191.5155 978,-194.5 996.2283,-196.8872 1015.6274,-199.3571 1034.4152,-201.7125"/>
<polygon fill="#757575" stroke="#757575" points="1034.1185,-205.2026 1044.4755,-202.9703 1034.987,-198.2567 1034.1185,-205.2026"/>
</g>
<!-- components/ListItem/ListContainer.js -->
<g id="node12" class="node">
<title>components/ListItem/ListContainer.js</title>
<path fill="none" stroke="#cfffac" d="M1258.3333,-468C1258.3333,-468 1019.6667,-468 1019.6667,-468 1015.8333,-468 1012,-464.1667 1012,-460.3333 1012,-460.3333 1012,-452.6667 1012,-452.6667 1012,-448.8333 1015.8333,-445 1019.6667,-445 1019.6667,-445 1258.3333,-445 1258.3333,-445 1262.1667,-445 1266,-448.8333 1266,-452.6667 1266,-452.6667 1266,-460.3333 1266,-460.3333 1266,-464.1667 1262.1667,-468 1258.3333,-468"/>
<text text-anchor="middle" x="1139" y="-452.8" font-family="Arial" font-size="14.00" fill="#cfffac">components/ListItem/ListContainer.js</text>
</g>
<!-- components/ListItem/index.js -->
<g id="node13" class="node">
<title>components/ListItem/index.js</title>
<path fill="none" stroke="#c6c5fe" d="M919.8333,-468C919.8333,-468 731.1667,-468 731.1667,-468 727.3333,-468 723.5,-464.1667 723.5,-460.3333 723.5,-460.3333 723.5,-452.6667 723.5,-452.6667 723.5,-448.8333 727.3333,-445 731.1667,-445 731.1667,-445 919.8333,-445 919.8333,-445 923.6667,-445 927.5,-448.8333 927.5,-452.6667 927.5,-452.6667 927.5,-460.3333 927.5,-460.3333 927.5,-464.1667 923.6667,-468 919.8333,-468"/>
<text text-anchor="middle" x="825.5" y="-452.8" font-family="Arial" font-size="14.00" fill="#c6c5fe">components/ListItem/index.js</text>
</g>
<!-- components/ListItem/index.js&#45;&gt;components/ListItem/ListContainer.js -->
<g id="edge7" class="edge">
<title>components/ListItem/index.js&#45;&gt;components/ListItem/ListContainer.js</title>
<path fill="none" stroke="#757575" d="M927.7178,-456.5C951.3531,-456.5 976.8781,-456.5 1001.7387,-456.5"/>
<polygon fill="#757575" stroke="#757575" points="1001.97,-460.0001 1011.9699,-456.5 1001.9699,-453.0001 1001.97,-460.0001"/>
</g>
<!-- types/index.js -->
<g id="node14" class="node">
<title>types/index.js</title>
<path fill="none" stroke="#c6c5fe" d="M1183.8333,-427C1183.8333,-427 1094.1667,-427 1094.1667,-427 1090.3333,-427 1086.5,-423.1667 1086.5,-419.3333 1086.5,-419.3333 1086.5,-411.6667 1086.5,-411.6667 1086.5,-407.8333 1090.3333,-404 1094.1667,-404 1094.1667,-404 1183.8333,-404 1183.8333,-404 1187.6667,-404 1191.5,-407.8333 1191.5,-411.6667 1191.5,-411.6667 1191.5,-419.3333 1191.5,-419.3333 1191.5,-423.1667 1187.6667,-427 1183.8333,-427"/>
<text text-anchor="middle" x="1139" y="-411.8" font-family="Arial" font-size="14.00" fill="#c6c5fe">types/index.js</text>
</g>
<!-- components/ListItem/index.js&#45;&gt;types/index.js -->
<g id="edge8" class="edge">
<title>components/ListItem/index.js&#45;&gt;types/index.js</title>
<path fill="none" stroke="#757575" d="M913.3981,-444.9617C934.5535,-442.1876 957.0832,-439.2357 978,-436.5 1010.3779,-432.2653 1046.4201,-427.563 1076.1806,-423.6835"/>
<polygon fill="#757575" stroke="#757575" points="1076.9653,-427.1109 1086.429,-422.3476 1076.0605,-420.1696 1076.9653,-427.1109"/>
</g>
<!-- types/ItemTypes.js -->
<g id="node31" class="node">
<title>types/ItemTypes.js</title>
<path fill="none" stroke="#cfffac" d="M1528.8333,-427C1528.8333,-427 1407.1667,-427 1407.1667,-427 1403.3333,-427 1399.5,-423.1667 1399.5,-419.3333 1399.5,-419.3333 1399.5,-411.6667 1399.5,-411.6667 1399.5,-407.8333 1403.3333,-404 1407.1667,-404 1407.1667,-404 1528.8333,-404 1528.8333,-404 1532.6667,-404 1536.5,-407.8333 1536.5,-411.6667 1536.5,-411.6667 1536.5,-419.3333 1536.5,-419.3333 1536.5,-423.1667 1532.6667,-427 1528.8333,-427"/>
<text text-anchor="middle" x="1468" y="-411.8" font-family="Arial" font-size="14.00" fill="#cfffac">types/ItemTypes.js</text>
</g>
<!-- types/index.js&#45;&gt;types/ItemTypes.js -->
<g id="edge36" class="edge">
<title>types/index.js&#45;&gt;types/ItemTypes.js</title>
<path fill="none" stroke="#757575" d="M1191.8595,-415.5C1245.0891,-415.5 1327.8477,-415.5 1388.8953,-415.5"/>
<polygon fill="#757575" stroke="#757575" points="1389.2625,-419.0001 1399.2624,-415.5 1389.2624,-412.0001 1389.2625,-419.0001"/>
</g>
<!-- containers/Home/index.js&#45;&gt;api/index.js -->
<g id="edge9" class="edge">
<title>containers/Home/index.js&#45;&gt;api/index.js</title>
<path fill="none" stroke="#757575" d="M600.4616,-364.9528C647.2712,-350.7141 726.8669,-326.5025 777.7701,-311.0186"/>
<polygon fill="#757575" stroke="#757575" points="779.0013,-314.3025 787.5499,-308.0437 776.9642,-307.6055 779.0013,-314.3025"/>
</g>
<!-- containers/Home/index.js&#45;&gt;components/ListItem/index.js -->
<g id="edge10" class="edge">
<title>containers/Home/index.js&#45;&gt;components/ListItem/index.js</title>
<path fill="none" stroke="#757575" d="M590.483,-388.0874C619.6914,-399.8796 667.0052,-418.1344 709,-430.5 724.2473,-434.9897 740.8158,-439.1229 756.545,-442.7103"/>
<polygon fill="#757575" stroke="#757575" points="756.2154,-446.2229 766.7379,-444.9872 757.7415,-439.3913 756.2154,-446.2229"/>
</g>
<!-- containers/Home/index.js&#45;&gt;types/index.js -->
<g id="edge12" class="edge">
<title>containers/Home/index.js&#45;&gt;types/index.js</title>
<path fill="none" stroke="#757575" d="M632.7482,-388.0321C656.8601,-391.6007 684.0545,-395.1959 709,-397.5 839.1675,-409.5232 992.2505,-413.5197 1076.1331,-414.8452"/>
<polygon fill="#757575" stroke="#757575" points="1076.2097,-418.3466 1086.2613,-414.9975 1076.3151,-411.3474 1076.2097,-418.3466"/>
</g>
<!-- containers/Home/stateDispatch.js -->
<g id="node16" class="node">
<title>containers/Home/stateDispatch.js</title>
<path fill="none" stroke="#c6c5fe" d="M934.3333,-388C934.3333,-388 716.6667,-388 716.6667,-388 712.8333,-388 709,-384.1667 709,-380.3333 709,-380.3333 709,-372.6667 709,-372.6667 709,-368.8333 712.8333,-365 716.6667,-365 716.6667,-365 934.3333,-365 934.3333,-365 938.1667,-365 942,-368.8333 942,-372.6667 942,-372.6667 942,-380.3333 942,-380.3333 942,-384.1667 938.1667,-388 934.3333,-388"/>
<text text-anchor="middle" x="825.5" y="-372.8" font-family="Arial" font-size="14.00" fill="#c6c5fe">containers/Home/stateDispatch.js</text>
</g>
<!-- containers/Home/index.js&#45;&gt;containers/Home/stateDispatch.js -->
<g id="edge11" class="edge">
<title>containers/Home/index.js&#45;&gt;containers/Home/stateDispatch.js</title>
<path fill="none" stroke="#757575" d="M652.6417,-376.5C667.5231,-376.5 683.1912,-376.5 698.77,-376.5"/>
<polygon fill="#757575" stroke="#757575" points="698.9854,-380.0001 708.9854,-376.5 698.9853,-373.0001 698.9854,-380.0001"/>
</g>
<!-- reducers/itemsReducer/actions.js -->
<g id="node17" class="node">
<title>reducers/itemsReducer/actions.js</title>
<path fill="none" stroke="#c6c5fe" d="M1247.3333,-329C1247.3333,-329 1030.6667,-329 1030.6667,-329 1026.8333,-329 1023,-325.1667 1023,-321.3333 1023,-321.3333 1023,-313.6667 1023,-313.6667 1023,-309.8333 1026.8333,-306 1030.6667,-306 1030.6667,-306 1247.3333,-306 1247.3333,-306 1251.1667,-306 1255,-309.8333 1255,-313.6667 1255,-313.6667 1255,-321.3333 1255,-321.3333 1255,-325.1667 1251.1667,-329 1247.3333,-329"/>
<text text-anchor="middle" x="1139" y="-313.8" font-family="Arial" font-size="14.00" fill="#c6c5fe">reducers/itemsReducer/actions.js</text>
</g>
<!-- containers/Home/stateDispatch.js&#45;&gt;reducers/itemsReducer/actions.js -->
<g id="edge13" class="edge">
<title>containers/Home/stateDispatch.js&#45;&gt;reducers/itemsReducer/actions.js</title>
<path fill="none" stroke="#757575" d="M886.6902,-364.9841C938.6091,-355.2131 1013.1457,-341.1855 1067.7441,-330.9102"/>
<polygon fill="#757575" stroke="#757575" points="1068.5168,-334.3263 1077.6969,-329.0371 1067.2221,-327.4471 1068.5168,-334.3263"/>
</g>
<!-- reducers/itemsReducer/actionTypes.js -->
<g id="node30" class="node">
<title>reducers/itemsReducer/actionTypes.js</title>
<path fill="none" stroke="#cfffac" d="M1592.3333,-227C1592.3333,-227 1343.6667,-227 1343.6667,-227 1339.8333,-227 1336,-223.1667 1336,-219.3333 1336,-219.3333 1336,-211.6667 1336,-211.6667 1336,-207.8333 1339.8333,-204 1343.6667,-204 1343.6667,-204 1592.3333,-204 1592.3333,-204 1596.1667,-204 1600,-207.8333 1600,-211.6667 1600,-211.6667 1600,-219.3333 1600,-219.3333 1600,-223.1667 1596.1667,-227 1592.3333,-227"/>
<text text-anchor="middle" x="1468" y="-211.8" font-family="Arial" font-size="14.00" fill="#cfffac">reducers/itemsReducer/actionTypes.js</text>
</g>
<!-- reducers/itemsReducer/actions.js&#45;&gt;reducers/itemsReducer/actionTypes.js -->
<g id="edge33" class="edge">
<title>reducers/itemsReducer/actions.js&#45;&gt;reducers/itemsReducer/actionTypes.js</title>
<path fill="none" stroke="#757575" d="M1255.1612,-307.7378C1270.4049,-305.1007 1285.6903,-301.752 1300,-297.5 1352.1014,-282.0184 1407.9306,-251.7007 1440.3139,-232.5829"/>
<polygon fill="#757575" stroke="#757575" points="1442.4059,-235.41 1449.1923,-227.2739 1438.8134,-229.4022 1442.4059,-235.41"/>
</g>
<!-- containers/Item/ItemContainer.js -->
<g id="node18" class="node">
<title>containers/Item/ItemContainer.js</title>
<path fill="none" stroke="#cfffac" d="M929.8333,-226C929.8333,-226 721.1667,-226 721.1667,-226 717.3333,-226 713.5,-222.1667 713.5,-218.3333 713.5,-218.3333 713.5,-210.6667 713.5,-210.6667 713.5,-206.8333 717.3333,-203 721.1667,-203 721.1667,-203 929.8333,-203 929.8333,-203 933.6667,-203 937.5,-206.8333 937.5,-210.6667 937.5,-210.6667 937.5,-218.3333 937.5,-218.3333 937.5,-222.1667 933.6667,-226 929.8333,-226"/>
<text text-anchor="middle" x="825.5" y="-210.8" font-family="Arial" font-size="14.00" fill="#cfffac">containers/Item/ItemContainer.js</text>
</g>
<!-- containers/Item/index.js&#45;&gt;api/index.js -->
<g id="edge14" class="edge">
<title>containers/Item/index.js&#45;&gt;api/index.js</title>
<path fill="none" stroke="#757575" d="M598.638,-246.0542C628.1157,-255.1891 670.9538,-267.8078 709,-276.5 729.0178,-281.0733 751.1849,-285.127 770.7631,-288.3686"/>
<polygon fill="#757575" stroke="#757575" points="770.3085,-291.8405 780.7401,-289.9881 771.4301,-284.931 770.3085,-291.8405"/>
</g>
<!-- containers/Item/index.js&#45;&gt;components/Comments/index.js -->
<g id="edge15" class="edge">
<title>containers/Item/index.js&#45;&gt;components/Comments/index.js</title>
<path fill="none" stroke="#757575" d="M584.2047,-222.9677C606.5646,-211.0281 642.3742,-191.7419 673,-174.5 689.1411,-165.4128 691.6202,-159.9074 709,-153.5 716.1859,-150.8508 723.7484,-148.5278 731.4256,-146.4924"/>
<polygon fill="#757575" stroke="#757575" points="732.3312,-149.8738 741.1916,-144.0649 730.6426,-143.0805 732.3312,-149.8738"/>
</g>
<!-- containers/Item/index.js&#45;&gt;components/Gallery/index.js -->
<g id="edge16" class="edge">
<title>containers/Item/index.js&#45;&gt;components/Gallery/index.js</title>
<path fill="none" stroke="#757575" d="M601.1306,-222.9507C630.5347,-214.4044 672.0983,-202.8466 709,-194.5 720.8627,-191.8168 733.4666,-189.252 745.835,-186.8941"/>
<polygon fill="#757575" stroke="#757575" points="746.5003,-190.3304 755.685,-185.0492 745.2116,-183.4501 746.5003,-190.3304"/>
</g>
<!-- containers/Item/index.js&#45;&gt;types/index.js -->
<g id="edge19" class="edge">
<title>containers/Item/index.js&#45;&gt;types/index.js</title>
<path fill="none" stroke="#757575" d="M578.7161,-246.2387C604.801,-264.5136 658.3033,-299.5294 709,-317.5 807.9627,-352.5796 839.731,-332.725 942,-356.5 995.5372,-368.9461 1055.9285,-387.7603 1095.568,-400.7821"/>
<polygon fill="#757575" stroke="#757575" points="1094.5887,-404.1446 1105.1819,-403.9605 1096.786,-397.4984 1094.5887,-404.1446"/>
</g>
<!-- containers/Item/index.js&#45;&gt;containers/Item/ItemContainer.js -->
<g id="edge17" class="edge">
<title>containers/Item/index.js&#45;&gt;containers/Item/ItemContainer.js</title>
<path fill="none" stroke="#757575" d="M647.1625,-228.0618C664.9826,-226.7066 684.1227,-225.2511 703.0136,-223.8146"/>
<polygon fill="#757575" stroke="#757575" points="703.4599,-227.2908 713.1657,-223.0425 702.9291,-220.311 703.4599,-227.2908"/>
</g>
<!-- containers/Item/stateDispatch.js -->
<g id="node20" class="node">
<title>containers/Item/stateDispatch.js</title>
<path fill="none" stroke="#c6c5fe" d="M928.8333,-267C928.8333,-267 722.1667,-267 722.1667,-267 718.3333,-267 714.5,-263.1667 714.5,-259.3333 714.5,-259.3333 714.5,-251.6667 714.5,-251.6667 714.5,-247.8333 718.3333,-244 722.1667,-244 722.1667,-244 928.8333,-244 928.8333,-244 932.6667,-244 936.5,-247.8333 936.5,-251.6667 936.5,-251.6667 936.5,-259.3333 936.5,-259.3333 936.5,-263.1667 932.6667,-267 928.8333,-267"/>
<text text-anchor="middle" x="825.5" y="-251.8" font-family="Arial" font-size="14.00" fill="#c6c5fe">containers/Item/stateDispatch.js</text>
</g>
<!-- containers/Item/index.js&#45;&gt;containers/Item/stateDispatch.js -->
<g id="edge18" class="edge">
<title>containers/Item/index.js&#45;&gt;containers/Item/stateDispatch.js</title>
<path fill="none" stroke="#757575" d="M647.1625,-241.2601C665.3205,-242.71 684.849,-244.2693 704.0878,-245.8055"/>
<polygon fill="#757575" stroke="#757575" points="703.8664,-249.2989 714.1132,-246.606 704.4236,-242.3211 703.8664,-249.2989"/>
</g>
<!-- containers/Item/stateDispatch.js&#45;&gt;reducers/itemsReducer/actions.js -->
<g id="edge20" class="edge">
<title>containers/Item/stateDispatch.js&#45;&gt;reducers/itemsReducer/actions.js</title>
<path fill="none" stroke="#757575" d="M909.8084,-267.0649C920.7984,-269.6244 931.78,-272.7322 942,-276.5 959.3798,-282.9074 960.4514,-291.5708 978,-297.5 989.1532,-301.2684 1000.9562,-304.3394 1012.8995,-306.8403"/>
<polygon fill="#757575" stroke="#757575" points="1012.4673,-310.3221 1022.9536,-308.8097 1013.813,-303.4526 1012.4673,-310.3221"/>
</g>
<!-- helpers/localStorage/getStorage.js&#45;&gt;helpers/localStorage/storageAvailable.js -->
<g id="edge26" class="edge">
<title>helpers/localStorage/getStorage.js&#45;&gt;helpers/localStorage/storageAvailable.js</title>
<path fill="none" stroke="#757575" d="M1587.8649,-52.5C1600.2637,-52.5 1612.9659,-52.5 1625.6236,-52.5"/>
<polygon fill="#757575" stroke="#757575" points="1625.7585,-56.0001 1635.7585,-52.5 1625.7584,-49.0001 1625.7585,-56.0001"/>
</g>
<!-- helpers/localStorage/setStorage.js&#45;&gt;helpers/localStorage/storageAvailable.js -->
<g id="edge27" class="edge">
<title>helpers/localStorage/setStorage.js&#45;&gt;helpers/localStorage/storageAvailable.js</title>
<path fill="none" stroke="#757575" d="M1553.9118,-23.0299C1592.4706,-28.2047 1638.1073,-34.3295 1677.76,-39.6511"/>
<polygon fill="#757575" stroke="#757575" points="1677.3275,-43.1244 1687.7043,-40.9857 1678.2587,-36.1866 1677.3275,-43.1244"/>
</g>
<!-- index.js -->
<g id="node24" class="node">
<title>index.js</title>
<path fill="none" stroke="#c6c5fe" d="M67.3333,-185C67.3333,-185 16.6667,-185 16.6667,-185 12.8333,-185 9,-181.1667 9,-177.3333 9,-177.3333 9,-169.6667 9,-169.6667 9,-165.8333 12.8333,-162 16.6667,-162 16.6667,-162 67.3333,-162 67.3333,-162 71.1667,-162 75,-165.8333 75,-169.6667 75,-169.6667 75,-177.3333 75,-177.3333 75,-181.1667 71.1667,-185 67.3333,-185"/>
<text text-anchor="middle" x="42" y="-169.8" font-family="Arial" font-size="14.00" fill="#c6c5fe">index.js</text>
</g>
<!-- index.js&#45;&gt;App.js -->
<g id="edge28" class="edge">
<title>index.js&#45;&gt;App.js</title>
<path fill="none" stroke="#757575" d="M75.0596,-183.2164C95.5087,-189.2266 121.8397,-196.9654 143.1962,-203.2423"/>
<polygon fill="#757575" stroke="#757575" points="142.3444,-206.6399 152.9256,-206.1018 144.3183,-199.9239 142.3444,-206.6399"/>
</g>
<!-- serviceWorker.js -->
<g id="node25" class="node">
<title>serviceWorker.js</title>
<path fill="none" stroke="#cfffac" d="M235.3333,-144C235.3333,-144 127.6667,-144 127.6667,-144 123.8333,-144 120,-140.1667 120,-136.3333 120,-136.3333 120,-128.6667 120,-128.6667 120,-124.8333 123.8333,-121 127.6667,-121 127.6667,-121 235.3333,-121 235.3333,-121 239.1667,-121 243,-124.8333 243,-128.6667 243,-128.6667 243,-136.3333 243,-136.3333 243,-140.1667 239.1667,-144 235.3333,-144"/>
<text text-anchor="middle" x="181.5" y="-128.8" font-family="Arial" font-size="14.00" fill="#cfffac">serviceWorker.js</text>
</g>
<!-- index.js&#45;&gt;serviceWorker.js -->
<g id="edge29" class="edge">
<title>index.js&#45;&gt;serviceWorker.js</title>
<path fill="none" stroke="#757575" d="M75.0596,-163.7836C92.2122,-158.7423 113.5033,-152.4847 132.5257,-146.8939"/>
<polygon fill="#757575" stroke="#757575" points="133.6252,-150.2188 142.2325,-144.041 131.6513,-143.5029 133.6252,-150.2188"/>
</g>
<!-- store/index.js -->
<g id="node26" class="node">
<title>store/index.js</title>
<path fill="none" stroke="#c6c5fe" d="M224.8333,-185C224.8333,-185 138.1667,-185 138.1667,-185 134.3333,-185 130.5,-181.1667 130.5,-177.3333 130.5,-177.3333 130.5,-169.6667 130.5,-169.6667 130.5,-165.8333 134.3333,-162 138.1667,-162 138.1667,-162 224.8333,-162 224.8333,-162 228.6667,-162 232.5,-165.8333 232.5,-169.6667 232.5,-169.6667 232.5,-177.3333 232.5,-177.3333 232.5,-181.1667 228.6667,-185 224.8333,-185"/>
<text text-anchor="middle" x="181.5" y="-169.8" font-family="Arial" font-size="14.00" fill="#c6c5fe">store/index.js</text>
</g>
<!-- index.js&#45;&gt;store/index.js -->
<g id="edge30" class="edge">
<title>index.js&#45;&gt;store/index.js</title>
<path fill="none" stroke="#757575" d="M75.0596,-173.5C88.6086,-173.5 104.7398,-173.5 120.2954,-173.5"/>
<polygon fill="#757575" stroke="#757575" points="120.4016,-177.0001 130.4015,-173.5 120.4015,-170.0001 120.4016,-177.0001"/>
</g>
<!-- reducers/index.js -->
<g id="node27" class="node">
<title>reducers/index.js</title>
<path fill="none" stroke="#c6c5fe" d="M403.3333,-165C403.3333,-165 291.6667,-165 291.6667,-165 287.8333,-165 284,-161.1667 284,-157.3333 284,-157.3333 284,-149.6667 284,-149.6667 284,-145.8333 287.8333,-142 291.6667,-142 291.6667,-142 403.3333,-142 403.3333,-142 407.1667,-142 411,-145.8333 411,-149.6667 411,-149.6667 411,-157.3333 411,-157.3333 411,-161.1667 407.1667,-165 403.3333,-165"/>
<text text-anchor="middle" x="347.5" y="-149.8" font-family="Arial" font-size="14.00" fill="#c6c5fe">reducers/index.js</text>
</g>
<!-- store/index.js&#45;&gt;reducers/index.js -->
<g id="edge35" class="edge">
<title>store/index.js&#45;&gt;reducers/index.js</title>
<path fill="none" stroke="#757575" d="M232.66,-167.3361C245.6917,-165.7661 259.9577,-164.0473 273.8682,-162.3713"/>
<polygon fill="#757575" stroke="#757575" points="274.402,-165.8324 283.9116,-161.1613 273.5647,-158.8826 274.402,-165.8324"/>
</g>
<!-- reducers/itemsReducer/index.js -->
<g id="node28" class="node">
<title>reducers/itemsReducer/index.js</title>
<path fill="none" stroke="#c6c5fe" d="M665.3333,-165C665.3333,-165 459.6667,-165 459.6667,-165 455.8333,-165 452,-161.1667 452,-157.3333 452,-157.3333 452,-149.6667 452,-149.6667 452,-145.8333 455.8333,-142 459.6667,-142 459.6667,-142 665.3333,-142 665.3333,-142 669.1667,-142 673,-145.8333 673,-149.6667 673,-149.6667 673,-157.3333 673,-157.3333 673,-161.1667 669.1667,-165 665.3333,-165"/>
<text text-anchor="middle" x="562.5" y="-149.8" font-family="Arial" font-size="14.00" fill="#c6c5fe">reducers/itemsReducer/index.js</text>
</g>
<!-- reducers/index.js&#45;&gt;reducers/itemsReducer/index.js -->
<g id="edge31" class="edge">
<title>reducers/index.js&#45;&gt;reducers/itemsReducer/index.js</title>
<path fill="none" stroke="#757575" d="M411.1344,-153.5C420.8934,-153.5 431.2345,-153.5 441.7473,-153.5"/>
<polygon fill="#757575" stroke="#757575" points="441.8658,-157.0001 451.8657,-153.5 441.8657,-150.0001 441.8658,-157.0001"/>
</g>
<!-- reducers/pageReducer/index.js -->
<g id="node29" class="node">
<title>reducers/pageReducer/index.js</title>
<path fill="none" stroke="#cfffac" d="M664.3333,-124C664.3333,-124 460.6667,-124 460.6667,-124 456.8333,-124 453,-120.1667 453,-116.3333 453,-116.3333 453,-108.6667 453,-108.6667 453,-104.8333 456.8333,-101 460.6667,-101 460.6667,-101 664.3333,-101 664.3333,-101 668.1667,-101 672,-104.8333 672,-108.6667 672,-108.6667 672,-116.3333 672,-116.3333 672,-120.1667 668.1667,-124 664.3333,-124"/>
<text text-anchor="middle" x="562.5" y="-108.8" font-family="Arial" font-size="14.00" fill="#cfffac">reducers/pageReducer/index.js</text>
</g>
<!-- reducers/index.js&#45;&gt;reducers/pageReducer/index.js -->
<g id="edge32" class="edge">
<title>reducers/index.js&#45;&gt;reducers/pageReducer/index.js</title>
<path fill="none" stroke="#757575" d="M407.7302,-141.9589C422.2269,-139.1849 437.6658,-136.2338 452,-133.5 464.8397,-131.0513 478.5197,-128.4473 491.7227,-125.9368"/>
<polygon fill="#757575" stroke="#757575" points="492.5339,-129.3454 501.7043,-124.0393 491.2265,-122.4685 492.5339,-129.3454"/>
</g>
<!-- reducers/itemsReducer/index.js&#45;&gt;reducers/itemsReducer/actionTypes.js -->
<g id="edge34" class="edge">
<title>reducers/itemsReducer/index.js&#45;&gt;reducers/itemsReducer/actionTypes.js</title>
<path fill="none" stroke="#757575" d="M645.4824,-141.9404C654.9038,-139.6141 664.2545,-136.8298 673,-133.5 690.5239,-126.8278 690.9498,-116.5787 709,-111.5 835.4243,-75.9285 1173.6786,-75.5647 1300,-111.5 1358.8092,-128.2297 1417.1679,-172.0797 1447.1942,-197.1744"/>
<polygon fill="#757575" stroke="#757575" points="1445.0031,-199.9055 1454.8887,-203.7169 1449.5376,-194.5727 1445.0031,-199.9055"/>
</g>
</g>
</svg>
